<svg xmlns="http://www.w3.org/2000/svg"  viewBox="0 0 64 64" width="64px" height="64px"><path d="M 14.269531 6.0097656 C 12.830644 5.9527353 11.357459 6.3357107 10.0625 7.2089844 A 1.0001 1.0001 0 0 0 10.0625 7.2109375 C 8.0720535 8.5540203 7 10.845999 7 13.1875 L 7 50.748047 C 7 54.546695 9.9358087 57.880051 13.785156 57.996094 C 17.733258 58.114607 21 54.925519 21 51 L 21 35 A 1.0001 1.0001 0 1 0 19 35 L 19 51 C 19 53.824481 16.693601 56.083534 13.845703 55.998047 C 11.127051 55.91609 9 53.519399 9 50.748047 L 9 13.1875 C 9 11.457001 9.7941335 9.8021078 11.179688 8.8671875 C 13.329782 7.4172414 16.074916 7.8313141 17.714844 9.6523438 A 1.0001 1.0001 0 0 0 17.724609 9.6640625 L 30.636719 23.601562 L 29.664062 24.652344 C 28.746773 25.642591 28.614084 27.018238 29.082031 28.089844 C 29.549944 29.161448 30.650008 30 32 30 C 33.349992 30 34.450021 29.161449 34.917969 28.089844 C 35.385916 27.018238 35.253227 25.642591 34.335938 24.652344 L 33.363281 23.601562 L 46.246094 9.6953125 A 1.0001 1.0001 0 0 0 46.259766 9.6796875 C 47.892499 7.8424476 50.640012 7.4187973 52.804688 8.8574219 C 54.197077 9.7824018 55 11.434863 55 13.164062 L 55 51 C 55 53.824481 52.693601 56.083534 49.845703 55.998047 C 47.127051 55.91609 45 53.519399 45 50.748047 L 45 28.789062 A 1.0001 1.0001 0 0 0 43.251953 28.125 L 35.849609 36.458984 A 1.0001 1.0001 0 0 0 35.849609 36.460938 C 34.908956 37.520583 33.56333 38.125 32.146484 38.125 L 32.125 38.125 C 30.707353 38.125 29.358748 37.526277 28.410156 36.472656 A 1.0001 1.0001 0 0 0 28.392578 36.453125 L 19.726562 27.3125 A 1.0002743 1.0002743 0 1 0 18.273438 28.6875 L 26.923828 37.810547 C 26.923828 37.810547 26.925781 37.8125 26.925781 37.8125 C 28.253095 39.285594 30.143576 40.125 32.125 40.125 L 32.146484 40.125 C 34.133639 40.125 36.026357 39.273417 37.345703 37.787109 L 43 31.421875 L 43 50.748047 C 43 54.546695 45.935809 57.880051 49.785156 57.996094 C 53.733258 58.114607 57 54.925519 57 51 L 57 13.164062 C 57 10.817264 55.915719 8.5224264 53.912109 7.1914062 C 50.936784 5.2140308 47.044894 5.7868024 44.765625 8.3515625 L 32 22.130859 L 19.201172 8.3144531 L 19.199219 8.3125 C 18.054373 7.0422557 16.510474 6.268294 14.882812 6.0605469 C 14.679243 6.0345642 14.475087 6.0179128 14.269531 6.0097656 z M 32 25.074219 L 32.869141 26.011719 C 33.246851 26.419471 33.264287 26.878121 33.083984 27.291016 C 32.903682 27.70391 32.556008 28 32 28 C 31.443992 28 31.096318 27.70391 30.916016 27.291016 C 30.735713 26.878121 30.753149 26.419471 31.130859 26.011719 L 32 25.074219 z"/></svg>